<svg width="32" height="32" viewBox="0 0 32 32" fill="none" xmlns="http://www.w3.org/2000/svg">
<path d="M11.2 17.6C11.6243 17.6 12.0313 17.4314 12.3314 17.1314C12.6314 16.8313 12.8 16.4243 12.8 16C12.8 15.5756 12.6314 15.1687 12.3314 14.8686C12.0313 14.5686 11.6243 14.4 11.2 14.4C10.7757 14.4 10.3687 14.5686 10.0686 14.8686C9.76857 15.1687 9.6 15.5756 9.6 16C9.6 16.4243 9.76857 16.8313 10.0686 17.1314C10.3687 17.4314 10.7757 17.6 11.2 17.6ZM12.8 20.8C12.8 21.2243 12.6314 21.6313 12.3314 21.9314C12.0313 22.2314 11.6243 22.4 11.2 22.4C10.7757 22.4 10.3687 22.2314 10.0686 21.9314C9.76857 21.6313 9.6 21.2243 9.6 20.8C9.6 20.3756 9.76857 19.9687 10.0686 19.6686C10.3687 19.3686 10.7757 19.2 11.2 19.2C11.6243 19.2 12.0313 19.3686 12.3314 19.6686C12.6314 19.9687 12.8 20.3756 12.8 20.8ZM16 17.6C16.4243 17.6 16.8313 17.4314 17.1314 17.1314C17.4314 16.8313 17.6 16.4243 17.6 16C17.6 15.5756 17.4314 15.1687 17.1314 14.8686C16.8313 14.5686 16.4243 14.4 16 14.4C15.5757 14.4 15.1687 14.5686 14.8686 14.8686C14.5686 15.1687 14.4 15.5756 14.4 16C14.4 16.4243 14.5686 16.8313 14.8686 17.1314C15.1687 17.4314 15.5757 17.6 16 17.6ZM17.6 20.8C17.6 21.2243 17.4314 21.6313 17.1314 21.9314C16.8313 22.2314 16.4243 22.4 16 22.4C15.5757 22.4 15.1687 22.2314 14.8686 21.9314C14.5686 21.6313 14.4 21.2243 14.4 20.8C14.4 20.3756 14.5686 19.9687 14.8686 19.6686C15.1687 19.3686 15.5757 19.2 16 19.2C16.4243 19.2 16.8313 19.3686 17.1314 19.6686C17.4314 19.9687 17.6 20.3756 17.6 20.8ZM20.8 17.6C21.2243 17.6 21.6313 17.4314 21.9314 17.1314C22.2314 16.8313 22.4 16.4243 22.4 16C22.4 15.5756 22.2314 15.1687 21.9314 14.8686C21.6313 14.5686 21.2243 14.4 20.8 14.4C20.3757 14.4 19.9687 14.5686 19.6686 14.8686C19.3686 15.1687 19.2 15.5756 19.2 16C19.2 16.4243 19.3686 16.8313 19.6686 17.1314C19.9687 17.4314 20.3757 17.6 20.8 17.6ZM27.2 8.79999C27.2 7.73912 26.7786 6.72171 26.0284 5.97156C25.2783 5.22142 24.2609 4.79999 23.2 4.79999H8.8C7.73914 4.79999 6.72172 5.22142 5.97158 5.97156C5.22143 6.72171 4.8 7.73912 4.8 8.79999V23.2C4.8 24.2609 5.22143 25.2783 5.97158 26.0284C6.72172 26.7786 7.73914 27.2 8.8 27.2H23.2C24.2609 27.2 25.2783 26.7786 26.0284 26.0284C26.7786 25.2783 27.2 24.2609 27.2 23.2V8.79999ZM6.4 11.2H25.6V23.2C25.6 23.8365 25.3471 24.447 24.8971 24.897C24.447 25.3471 23.8365 25.6 23.2 25.6H8.8C8.16348 25.6 7.55303 25.3471 7.10295 24.897C6.65286 24.447 6.4 23.8365 6.4 23.2V11.2ZM8.8 6.39999H23.2C23.8365 6.39999 24.447 6.65284 24.8971 7.10293C25.3471 7.55302 25.6 8.16347 25.6 8.79999V9.59999H6.4V8.79999C6.4 8.16347 6.65286 7.55302 7.10295 7.10293C7.55303 6.65284 8.16348 6.39999 8.8 6.39999Z" fill="#334155"/>
</svg>
