<svg width="32" height="32" viewBox="0 0 32 32" fill="none" xmlns="http://www.w3.org/2000/svg">
<path d="M4.00005 20V22.4C4.00005 23.8933 4.00005 24.64 4.29071 25.2107C4.54637 25.7124 4.9543 26.1203 5.45605 26.376C6.02538 26.6667 6.77205 26.6667 8.26271 26.6667H28M4.00005 20V6.66667M4.00005 20L9.13738 15.72L9.14271 15.716C10.072 14.9413 10.5374 14.5533 11.0427 14.396C11.6389 14.2096 12.2816 14.2384 12.8587 14.4773C13.348 14.6813 13.776 15.1093 14.6347 15.968L14.6427 15.976C15.5147 16.848 15.9507 17.2853 16.448 17.4867C17.0366 17.7265 17.6915 17.7483 18.2947 17.548C18.8054 17.3773 19.272 16.9693 20.2054 16.1533L28 9.33334" stroke="#334155" stroke-width="2" stroke-linecap="round" stroke-linejoin="round"/>
</svg>
