<svg width="32" height="32" viewBox="0 0 32 32" fill="none" xmlns="http://www.w3.org/2000/svg">
<path d="M4.66669 10.6667C4.66695 9.40254 4.99398 8.15996 5.61604 7.0595C6.23811 5.95904 7.13408 5.03806 8.217 4.38595C9.29993 3.73383 10.533 3.37273 11.7967 3.33767C13.0603 3.30262 14.3115 3.59481 15.4289 4.18588C16.5464 4.77696 17.492 5.64685 18.1741 6.71114C18.8562 7.77542 19.2516 8.99796 19.322 10.2601C19.3923 11.5223 19.1352 12.7812 18.5756 13.9147C18.016 15.0482 17.1728 16.0177 16.128 16.7293C18.378 17.5546 20.3296 19.0343 21.7315 20.978C23.1335 22.9217 23.9217 25.2405 23.9947 27.636C23.9916 27.8943 23.8888 28.1413 23.7078 28.3256C23.5268 28.5099 23.2816 28.6171 23.0235 28.6248C22.7653 28.6326 22.5141 28.5403 22.3224 28.3672C22.1307 28.1941 22.0133 27.9536 21.9947 27.696C21.9153 25.0979 20.8274 22.6329 18.9616 20.8232C17.0958 19.0135 14.5986 18.0015 11.9994 18.0015C9.40008 18.0015 6.90295 19.0135 5.03712 20.8232C3.1713 22.6329 2.08342 25.0979 2.00402 27.696C1.99067 27.9571 1.87559 28.2026 1.68343 28.3799C1.49128 28.5572 1.23732 28.6522 0.975985 28.6445C0.714645 28.6368 0.466703 28.5271 0.285276 28.3389C0.103848 28.1506 0.00336545 27.8988 0.00535429 27.6373C0.0780894 25.2416 0.866163 22.9225 2.26814 20.9785C3.67011 19.0346 5.62181 17.5547 7.87202 16.7293C6.88412 16.0565 6.07566 15.1524 5.517 14.0958C4.95835 13.0391 4.66644 11.8619 4.66669 10.6667ZM12 5.33333C10.5855 5.33333 9.22898 5.89523 8.22878 6.89542C7.22859 7.89562 6.66669 9.25217 6.66669 10.6667C6.66669 12.0811 7.22859 13.4377 8.22878 14.4379C9.22898 15.4381 10.5855 16 12 16C13.4145 16 14.7711 15.4381 15.7713 14.4379C16.7715 13.4377 17.3334 12.0811 17.3334 10.6667C17.3334 9.25217 16.7715 7.89562 15.7713 6.89542C14.7711 5.89523 13.4145 5.33333 12 5.33333ZM23.0534 10.6667C22.8569 10.6667 22.664 10.68 22.4747 10.7067C22.3425 10.7303 22.2069 10.7271 22.076 10.6973C21.945 10.6674 21.8215 10.6114 21.7126 10.5328C21.6038 10.4541 21.5119 10.3543 21.4425 10.2394C21.373 10.1244 21.3275 9.99668 21.3085 9.86374C21.2895 9.73079 21.2975 9.59539 21.3319 9.4656C21.3664 9.33581 21.4267 9.21429 21.5091 9.10829C21.5916 9.0023 21.6946 8.914 21.8119 8.84866C21.9292 8.78332 22.0585 8.74228 22.192 8.72799C23.5181 8.53626 24.8703 8.79092 26.0358 9.45189C27.2014 10.1129 28.114 11.1426 28.6302 12.3791C29.1463 13.6156 29.2367 14.9886 28.887 16.282C28.5373 17.5755 27.7675 18.716 26.6987 19.524C28.2699 20.2275 29.6039 21.3707 30.5398 22.8155C31.4758 24.2603 31.9736 25.9452 31.9734 27.6667C31.9734 27.9319 31.868 28.1862 31.6805 28.3738C31.4929 28.5613 31.2386 28.6667 30.9734 28.6667C30.7081 28.6667 30.4538 28.5613 30.2662 28.3738C30.0787 28.1862 29.9734 27.9319 29.9734 27.6667C29.9738 26.1787 29.4947 24.7302 28.607 23.536C27.7193 22.3419 26.4703 21.4657 25.0454 21.0373L24.3334 20.824V18.5893L24.88 18.3107C25.6904 17.9002 26.3387 17.2286 26.7204 16.4043C27.1021 15.58 27.1949 14.6512 26.9838 13.7677C26.7727 12.8842 26.27 12.0976 25.5568 11.535C24.8437 10.9723 23.9617 10.6664 23.0534 10.6667Z" fill="#0F172A"/>
</svg>
