<svg width="20" height="20" viewBox="0 0 20 20" fill="none" xmlns="http://www.w3.org/2000/svg">
<path d="M10.0008 9.16678C10.6601 9.16678 11.3046 8.97128 11.8527 8.60501C12.4009 8.23874 12.8281 7.71814 13.0804 7.10905C13.3327 6.49997 13.3987 5.82974 13.2701 5.18314C13.1415 4.53654 12.824 3.94259 12.3578 3.47642C11.8917 3.01024 11.2977 2.69277 10.6511 2.56416C10.0045 2.43554 9.33429 2.50155 8.7252 2.75384C8.11612 3.00614 7.59552 3.43338 7.22925 3.98154C6.86298 4.5297 6.66748 5.17417 6.66748 5.83344C6.66748 6.7175 7.01867 7.56534 7.64379 8.19046C8.26891 8.81559 9.11676 9.16678 10.0008 9.16678ZM10.0008 4.16677C10.3305 4.16677 10.6527 4.26452 10.9268 4.44766C11.2008 4.63079 11.4145 4.89109 11.5406 5.19564C11.6668 5.50018 11.6998 5.83529 11.6355 6.15859C11.5712 6.48189 11.4124 6.77887 11.1793 7.01195C10.9462 7.24504 10.6493 7.40378 10.326 7.46808C10.0027 7.53239 9.66755 7.49939 9.36301 7.37324C9.05847 7.2471 8.79817 7.03347 8.61503 6.75939C8.4319 6.48531 8.33415 6.16308 8.33415 5.83344C8.33415 5.39141 8.50974 4.96749 8.8223 4.65493C9.13487 4.34237 9.55879 4.16677 10.0008 4.16677ZM10.0008 10.8334C8.45372 10.8334 6.96999 11.448 5.87602 12.542C4.78206 13.6359 4.16748 15.1197 4.16748 16.6668C4.16748 16.8878 4.25528 17.0998 4.41156 17.256C4.56784 17.4123 4.7798 17.5001 5.00081 17.5001C5.22183 17.5001 5.43379 17.4123 5.59007 17.256C5.74635 17.0998 5.83415 16.8878 5.83415 16.6668C5.83415 15.5617 6.27313 14.5019 7.05454 13.7205C7.83594 12.9391 8.89575 12.5001 10.0008 12.5001C11.1059 12.5001 12.1657 12.9391 12.9471 13.7205C13.7285 14.5019 14.1675 15.5617 14.1675 16.6668C14.1675 16.8878 14.2553 17.0998 14.4116 17.256C14.5678 17.4123 14.7798 17.5001 15.0008 17.5001C15.2218 17.5001 15.4338 17.4123 15.5901 17.256C15.7464 17.0998 15.8342 16.8878 15.8342 16.6668C15.8342 15.1197 15.2196 13.6359 14.1256 12.542C13.0316 11.448 11.5479 10.8334 10.0008 10.8334Z" fill="#0F172A"/>
</svg>
