<svg width="32" height="32" viewBox="0 0 32 32" fill="none" xmlns="http://www.w3.org/2000/svg">
<path d="M10.6667 17.3333V6C10.6667 5.46957 10.8775 4.96086 11.2525 4.58579C11.6276 4.21071 12.1363 4 12.6667 4C13.1972 4 13.7059 4.21071 14.081 4.58579C14.456 4.96086 14.6667 5.46957 14.6667 6V16M14.6667 15.3333V12.6667C14.6667 12.1362 14.8775 11.6275 15.2525 11.2525C15.6276 10.8774 16.1363 10.6667 16.6667 10.6667C17.1972 10.6667 17.7059 10.8774 18.081 11.2525C18.456 11.6275 18.6667 12.1362 18.6667 12.6667V16M18.6667 14C18.6667 13.4696 18.8775 12.9609 19.2525 12.5858C19.6276 12.2107 20.1363 12 20.6667 12C21.1972 12 21.7059 12.2107 22.081 12.5858C22.456 12.9609 22.6667 13.4696 22.6667 14V16" stroke="#334155" stroke-width="1.66667" stroke-linecap="round" stroke-linejoin="round"/>
<path d="M22.6667 15.3333C22.6667 14.8029 22.8774 14.2942 23.2525 13.9191C23.6276 13.5441 24.1363 13.3333 24.6667 13.3333C25.1971 13.3333 25.7059 13.5441 26.0809 13.9191C26.456 14.2942 26.6667 14.8029 26.6667 15.3333V21.3333C26.6667 23.4551 25.8239 25.4899 24.3236 26.9902C22.8233 28.4905 20.7884 29.3333 18.6667 29.3333H16H16.2774C14.9525 29.3336 13.6483 29.0047 12.4819 28.3764C11.3155 27.748 10.3234 26.8398 9.59471 25.7333L9.33338 25.3333C8.91738 24.6947 7.45738 22.1493 4.95205 17.696C4.69665 17.242 4.62842 16.7064 4.76189 16.2029C4.89535 15.6994 5.21998 15.2678 5.66671 15C6.14255 14.7145 6.70014 14.5962 7.25092 14.6638C7.80171 14.7314 8.3141 14.9812 8.70671 15.3733L10.6667 17.3333M6.66671 4.00001L5.33338 2.66667M5.33338 9.33334H4.00005M18.6667 4.00001L20 2.66667M20 8H21.3334" stroke="#334155" stroke-width="1.66667" stroke-linecap="round" stroke-linejoin="round"/>
</svg>
